HIERARCHY
ROOT Hips
{
	OFFSET 0.000000 0.000000 0.000000
	CHANNELS 6 Xposition Yposition Zposition Zrotation Yrotation Xrotation 
	JOINT LHipJoint
	{
		OFFSET 0.000000 0.000000 0.000000
		CHANNELS 3 Zrotation Yrotation Xrotation
		JOINT LeftUpLeg
		{
			OFFSET 1.363060 -1.794630 0.839290
			CHANNELS 3 Zrotation Yrotation Xrotation
			JOINT LeftLeg
			{
				OFFSET 2.448110 -6.726130 0.000000
				CHANNELS 3 Zrotation Yrotation Xrotation
				JOINT LeftFoot
				{
					OFFSET 2.562200 -7.039590 0.000000
					CHANNELS 3 Zrotation Yrotation Xrotation
					JOINT LeftToeBase
					{
						OFFSET 0.157640 -0.433110 2.322550
						CHANNELS 3 Zrotation Yrotation Xrotation
						End Site
						{
							OFFSET 0.000000 0.000000 0.000000
						}
					}
				}
			}
		}
	}
	JOINT RHipJoint
	{
		OFFSET 0.000000 0.000000 0.000000
		CHANNELS 3 Zrotation Yrotation Xrotation
		JOINT RightUpLeg
		{
			OFFSET -1.305520 -1.794630 0.839290
			CHANNELS 3 Zrotation Yrotation Xrotation
			JOINT RightLeg
			{
				OFFSET -2.542530 -6.985550 0.000000
				CHANNELS 3 Zrotation Yrotation Xrotation
				JOINT RightFoot
				{
					OFFSET -2.568260 -7.056230 0.000000
					CHANNELS 3 Zrotation Yrotation Xrotation
					JOINT RightToeBase
					{
						OFFSET -0.164730 -0.452590 2.363150
						CHANNELS 3 Zrotation Yrotation Xrotation
						End Site
						{
							OFFSET 0.000000 0.000000 0.000000
						}
					}
				}
			}
		}
	}
}
MOTION
Frames: 33
Frame Time: 0.008333
7.377603 15.689298 1.466771 125.730782 -86.633617 -95.667700 -9.696427 -2.940012 -3.013428 -12.281448 -2.659571 -66.961365 0.446761 5.270414 74.756378 3.362833 14.297010 -24.215231 -3.932800 -0.000000 -14.207399 8.623162 0.431025 -4.621963 14.649573 -2.676541 -41.885003 2.064559 -4.005687 56.817270 -4.032680 -8.755130 -37.354250 5.411400 -0.000000 -28.297100
7.164361 15.776705 1.448063 121.390119 -86.731576 -91.239632 -9.457910 -2.866022 -2.790668 -12.822733 -3.186691 -67.264351 0.193760 5.054195 72.247902 3.456067 14.364746 -24.131707 -3.921300 -0.000000 -14.114600 8.702032 0.333696 -4.600087 14.401682 -2.942976 -40.340584 2.142091 -3.838758 55.016481 -3.931792 -8.684888 -36.267808 5.164100 0.000000 -30.062900
6.948006 15.868428 1.430523 116.792142 -86.798861 -86.515966 -9.216353 -2.758004 -2.550285 -13.385967 -3.730531 -67.460399 -0.076638 4.819425 69.472328 3.540757 14.354558 -23.988630 -3.872900 0.000000 -14.081901 8.793397 0.245731 -4.582970 14.125434 -3.266567 -38.885067 2.206043 -3.678487 53.240689 -3.784457 -8.505438 -34.908587 4.819000 -0.000000 -32.419700
6.728844 15.963263 1.414381 112.337641 -86.826241 -81.900311 -8.978348 -2.616951 -2.292095 -13.962650 -4.285148 -67.541309 -0.362867 4.566722 66.429020 3.609884 14.245978 -23.754295 -3.774700 -0.000000 -14.156300 8.895098 0.166122 -4.575052 13.819712 -3.652755 -37.538478 2.252805 -3.529688 51.531500 -3.585866 -8.203850 -33.247060 4.374500 0.000000 -35.450200
6.507315 16.060089 1.399721 108.398194 -86.808305 -77.774834 -8.750111 -2.446602 -2.018988 -14.548774 -4.842497 -67.490420 -0.663166 4.295393 63.124996 3.656931 14.029635 -23.396229 -3.617400 0.000000 -14.387199 9.006041 0.093335 -4.583189 13.478520 -4.113732 -36.311200 2.280433 -3.398889 49.929597 -3.333012 -7.766300 -31.267510 3.837199 0.000000 -39.146800
6.283673 16.157371 1.386836 105.310751 -86.757412 -74.478990 -8.538848 -2.256694 -1.732290 -15.124654 -5.388955 -67.314095 -0.973585 4.005154 59.587953 3.676621 13.707333 -22.886138 -3.396500 0.000000 -14.833801 9.121675 0.022263 -4.607464 13.111605 -4.634793 -35.217522 2.286848 -3.291763 48.471140 -3.030493 -7.199832 -28.969628 3.229800 -0.000000 -43.444600
6.054621 16.251492 1.384636 85.401318 -86.851654 -54.304356 -8.331989 -2.130166 -1.219950 -15.192222 -6.758924 -67.086554 -1.187265 3.600186 55.921761 3.670127 13.345484 -22.046511 -3.073700 -0.000000 -15.652501 9.239904 -0.146774 -4.816609 13.213622 -6.008851 -34.295629 2.376689 -3.258515 46.999837 -2.685033 -6.468838 -26.403367 2.583200 0.000000 -48.051400
5.828157 16.345355 1.375486 85.071154 -86.745088 -53.751958 -8.175027 -1.929633 -0.921991 -15.708724 -7.237793 -66.663885 -1.501553 3.275839 52.045753 3.630073 12.877223 -21.198400 -2.746401 0.000000 -16.633799 9.351425 -0.220002 -4.879846 12.805197 -6.620287 -33.470244 2.339858 -3.210126 45.925049 -2.311401 -5.670550 -23.565096 1.939100 -0.000001 -52.812100
5.600989 16.435394 1.368207 85.759273 -86.670947 -54.222955 -8.042865 -1.742303 -0.627684 -16.168664 -7.656145 -66.148500 -1.810333 2.932658 48.102555 3.563189 12.381099 -20.206419 -2.388800 0.000001 -17.897399 9.465027 -0.295527 -4.957419 12.394129 -7.238526 -32.778576 2.282089 -3.196079 45.079550 -1.927540 -4.790333 -20.547835 1.339600 -0.000000 -57.351900
5.373597 16.520304 1.362669 87.531497 -86.639612 -55.791444 -7.934598 -1.575212 -0.345040 -16.560129 -7.997324 -65.563586 -2.107305 2.574754 44.172770 3.475902 11.892994 -19.114079 -2.022200 0.000000 -19.417100 9.580267 -0.369199 -5.046021 11.987369 -7.837651 -32.210481 2.203112 -3.213016 44.478029 -1.553022 -3.859247 -17.430861 0.823200 0.000000 -61.402200
5.146115 16.598694 1.358795 90.443952 -86.663335 -58.510339 -7.850187 -1.435262 -0.079793 -16.867456 -8.242986 -64.957499 -2.385584 2.210122 40.354142 3.375043 11.434435 -17.980789 -1.665500 0.000000 -21.144300 9.693062 -0.440137 -5.135955 11.606581 -8.376495 -31.762966 2.103380 -3.254555 44.126990 -1.209172 -2.924621 -14.307521 0.418800 -0.000000 -64.740600
4.918930 16.669497 1.356213 94.680729 -86.735262 -62.567778 -7.786656 -1.323996 0.160616 -17.093920 -8.382487 -64.363192 -2.640427 1.848058 36.734544 3.268588 11.020732 -16.873852 -1.336800 0.000000 -23.012700 9.801874 -0.503892 -5.220734 11.256253 -8.830590 -31.426386 1.984086 -3.313651 44.027970 -0.911890 -2.030053 -11.274778 0.137600 0.000000 -67.249800
4.692446 16.731840 1.354629 100.459555 -86.836893 -68.186841 -7.739313 -1.240208 0.369130 -17.246521 -8.415142 -63.800797 -2.867546 1.498201 33.392805 3.164846 10.661498 -15.861317 -1.050601 0.000000 -24.930600 9.906480 -0.555728 -5.298554 10.935759 -9.194234 -31.184271 1.848371 -3.383695 44.175415 -0.671718 -1.220886 -8.432075 -0.026100 -0.000001 -68.931100
4.466899 16.784881 1.353719 107.926806 -86.945783 -75.514361 -7.703202 -1.179884 0.542720 -17.334937 -8.341647 -63.300271 -3.064939 1.171323 30.396749 3.068441 10.347844 -14.995045 -0.814900 -0.000000 -26.816200 10.006585 -0.593831 -5.364198 10.651327 -9.456553 -31.029946 1.699914 -3.459074 44.563265 -0.493378 -0.543151 -5.872409 -0.094201 0.000000 -69.829400
4.246469 16.830883 1.343791 132.253525 -86.610570 -99.783767 -7.541204 -1.033039 0.451226 -17.852834 -7.299892 -62.809186 -3.347743 0.915418 27.741250 2.969952 9.964268 -14.476701 -0.672100 0.000000 -28.504100 10.266005 -0.486350 -5.230990 9.968009 -8.816760 -30.939993 1.447251 -3.504682 45.365497 -0.382103 -0.056157 -3.665621 -0.098500 0.000000 -70.079600
4.022863 16.863138 1.343604 140.561018 -86.563887 -107.983179 -7.499562 -1.017254 0.550415 -17.846389 -7.059183 -62.467697 -3.485596 0.649007 25.553178 2.891095 9.695537 -13.959024 -0.538300 0.000000 -30.134800 10.381660 -0.507156 -5.262969 9.770412 -8.902285 -30.949327 1.297023 -3.594610 46.201927 -0.319514 0.259360 -1.881590 -0.074500 -0.000000 -69.793600
3.800494 16.884058 1.343543 148.633584 -86.459958 -115.969107 -7.469001 -1.020244 0.616396 -17.808249 -6.771619 -62.195448 -3.594839 0.426124 23.788043 2.822060 9.445316 -13.599668 -0.447199 0.000000 -31.533700 10.489250 -0.522259 -5.287704 9.592473 -8.938315 -31.021425 1.149982 -3.691959 47.253836 -0.301345 0.381068 -0.544234 -0.050501 0.000000 -69.142900
3.579372 16.893060 1.343800 156.083104 -86.305253 -123.350520 -7.455199 -1.039086 0.656673 -17.730635 -6.461018 -61.998512 -3.674918 0.252107 22.444354 2.760551 9.209848 -13.354831 -0.386100 -0.000000 -32.686700 10.583252 -0.534569 -5.307912 9.435707 -8.937844 -31.154761 1.006793 -3.797007 48.513521 -0.318376 0.315562 0.345964 -0.045500 0.000000 -68.273100
3.359139 16.889588 1.344285 162.618043 -86.107745 -129.823872 -7.458756 -1.067093 0.683842 -17.605775 -6.166787 -61.875200 -3.724402 0.127177 21.490310 2.706504 9.006669 -13.154751 -0.338000 -0.000000 -33.646700 10.664651 -0.542936 -5.325284 9.288158 -8.915647 -31.357991 0.866049 -3.910104 49.975753 -0.361214 0.089579 0.811860 -0.065500 0.000000 -67.294700
3.139933 16.873261 1.345118 168.196391 -85.882047 -135.345767 -7.480030 -1.099690 0.705326 -17.420415 -5.916541 -61.827884 -3.740228 0.054086 20.917878 2.658738 8.847580 -12.941801 -0.289400 0.000000 -34.423700 10.734871 -0.546375 -5.343603 9.144855 -8.886114 -31.630575 0.725772 -4.031369 51.630391 -0.421137 -0.257376 0.896783 -0.105901 0.000000 -66.282100
2.921851 16.843821 1.346503 172.960910 -85.645257 -140.059679 -7.518974 -1.133184 0.721632 -17.171375 -5.716999 -61.868261 -3.721466 0.038765 20.746677 2.612912 8.723324 -12.680287 -0.232100 -0.000001 -34.986900 10.796251 -0.545148 -5.366108 9.005973 -8.860966 -31.964139 0.583992 -4.160494 53.460515 -0.490241 -0.678516 0.661625 -0.155500 0.000000 -65.293300
2.705094 16.801256 1.348293 176.987867 -85.409586 -144.036123 -7.571868 -1.163728 0.737045 -16.861671 -5.586740 -62.011012 -3.667183 0.082038 20.976421 2.568439 8.641035 -12.333937 -0.158400 0.000000 -35.359700 10.853831 -0.537608 -5.392099 8.863305 -8.844635 -32.366648 0.438060 -4.297744 55.451326 -0.561525 -1.124810 0.176830 -0.201900 0.000000 -64.356300
2.489856 16.745784 1.350334 -179.608237 -85.185475 -147.385331 -7.635501 -1.189783 0.749912 -16.504536 -5.526472 -62.276769 -3.578362 0.185924 21.626260 2.523701 8.592181 -11.897634 -0.067601 0.000000 -35.521100 10.911359 -0.523232 -5.420262 8.711400 -8.837692 -32.840662 0.285593 -4.442948 57.582118 -0.628799 -1.550784 -0.481572 -0.234700 0.000000 -63.489500
2.276617 16.678000 1.352392 -176.726257 -84.979037 -150.207954 -7.706462 -1.211913 0.754449 -16.122764 -5.524435 -62.686138 -3.457370 0.351451 22.720317 2.477482 8.561003 -11.393514 0.034900 0.000000 -35.423899 10.971429 -0.501580 -5.448672 8.544706 -8.836622 -33.385482 0.124262 -4.595504 59.828288 -0.686878 -1.918574 -1.238563 -0.248800 -0.000000 -62.704199
2.065746 16.598769 1.354020 -174.338910 -84.792827 -152.533474 -7.780368 -1.232324 0.740921 -15.752401 -5.558127 -63.247500 -3.308770 0.576466 24.271353 2.429067 8.528298 -10.866321 0.138600 0.000000 -35.007100 11.036797 -0.472191 -5.475618 8.351548 -8.839208 -33.995298 -0.047712 -4.755072 62.162444 -0.731624 -2.198804 -2.028091 -0.243700 0.000000 -62.004100
1.857832 16.509273 1.355156 -172.263020 -84.620152 -154.546586 -7.855927 -1.256582 0.700595 -15.404890 -5.595975 -63.978327 -3.133880 0.858583 26.299624 2.380449 8.479937 -10.388383 0.227200 0.000000 -34.181600 11.105116 -0.434791 -5.498180 8.141314 -8.825821 -34.663068 -0.232523 -4.918121 64.553521 -0.761439 -2.381438 -2.792968 -0.223901 0.000000 -61.392501
1.653438 16.411064 1.355408 -170.489715 -84.453849 -156.266133 -7.929228 -1.290417 0.621279 -15.109803 -5.603508 -64.856583 -2.937894 1.188582 28.779608 2.333736 8.408077 -10.033344 0.284899 -0.000000 -32.904300 11.177091 -0.388438 -5.516460 7.905380 -8.790510 -35.371074 -0.430627 -5.083065 66.969035 -0.775671 -2.461998 -3.494973 -0.194700 0.000000 -60.857000
1.453059 16.306000 1.354630 -168.929601 -84.281916 -157.789559 -7.998253 -1.340303 0.494618 -14.872960 -5.550657 -65.852818 -2.724175 1.554795 31.666941 2.293834 8.320949 -9.876593 0.297900 -0.000000 -31.173600 11.250782 -0.331932 -5.530938 7.648150 -8.718257 -36.101137 -0.641924 -5.246509 69.375232 -0.776029 -2.451919 -4.110216 -0.162000 -0.000000 -60.394500
1.257239 16.196188 1.352208 -167.681724 -84.099973 -159.032453 -8.059056 -1.409802 0.313254 -14.719654 -5.416624 -66.902505 -2.501298 1.940615 34.867506 2.265119 8.234212 -9.975575 0.257800 -0.000001 -29.074100 11.327429 -0.264504 -5.544243 7.353623 -8.612199 -36.832795 -0.864190 -5.408714 71.741133 -0.764747 -2.365127 -4.636682 -0.129700 -0.000000 -59.965701
1.066271 16.083934 1.348059 -166.700075 -83.901517 -160.048281 -8.111075 -1.500704 0.076688 -14.643510 -5.191037 -67.948659 -2.275115 2.331200 38.282657 2.253331 8.173944 -10.372323 0.160800 -0.000000 -26.753700 11.404878 -0.185593 -5.558942 7.026787 -8.465497 -37.549864 -1.094847 -5.567538 74.035781 -0.746126 -2.230161 -5.080883 -0.100900 -0.000000 -59.553500
0.880286 15.971521 1.341876 -166.041865 -83.690194 -160.787631 -8.153473 -1.610889 -0.213000 -14.649600 -4.876288 -68.921547 -2.054080 2.712130 41.794365 2.262355 8.163406 -11.083705 0.006600 0.000000 -24.416301 11.482874 -0.095674 -5.578588 6.661051 -8.285552 -38.239208 -1.330058 -5.723751 76.233710 -0.724371 -2.075393 -5.463348 -0.076700 0.000000 -59.127000
0.698835 15.861386 1.333966 -165.620459 -83.468337 -161.333102 -8.188297 -1.735014 -0.545430 -14.717370 -4.485280 -69.773617 -1.843960 3.072568 45.291732 2.295418 8.222489 -12.105212 -0.203600 0.000000 -22.239400 11.558242 0.004740 -5.604038 6.272683 -8.070400 -38.900157 -1.565790 -5.874905 78.308956 -0.704667 -1.937113 -5.802705 -0.057801 -0.000000 -58.686200
0.521967 15.755543 1.324048 -165.536928 -83.252939 -161.591757 -8.215691 -1.866697 -0.914117 -14.855733 -4.037812 -70.444470 -1.652419 3.403728 48.669662 2.352215 8.356391 -13.411885 -0.469400 -0.000000 -20.395700 11.631647 0.113565 -5.638579 5.852093 -7.842746 -39.530010 -1.797609 -6.024501 80.248014 -0.690098 -1.838145 -6.131347 -0.043100 0.000000 -58.190300
